<mxfile host="app.diagrams.net" modified="2023-07-19T13:42:23.594Z" agent="Mozilla/5.0 (Windows NT 10.0; Win64; x64) AppleWebKit/537.36 (KHTML, like Gecko) Chrome/114.0.0.0 Safari/537.36" etag="HYG-i6qzOnXGWerTWaQO" version="21.6.2" type="github">
  <diagram name="Page-1" id="y37hcGOAysiVECTbvipY">
    <mxGraphModel dx="1114" dy="584" grid="1" gridSize="10" guides="1" tooltips="1" connect="1" arrows="1" fold="1" page="1" pageScale="1" pageWidth="850" pageHeight="1100" math="0" shadow="0">
      <root>
        <mxCell id="0" />
        <mxCell id="1" parent="0" />
        <mxCell id="wSZy5F7mG4aMIDZkvXDz-1" value="Data" style="shape=cylinder3;whiteSpace=wrap;html=1;boundedLbl=1;backgroundOutline=1;size=15;" parent="1" vertex="1">
          <mxGeometry x="184" y="125" width="90" height="577" as="geometry" />
        </mxCell>
        <mxCell id="wSZy5F7mG4aMIDZkvXDz-2" value="" style="curved=1;endArrow=classic;html=1;rounded=0;exitX=0.978;exitY=0.085;exitDx=0;exitDy=0;exitPerimeter=0;" parent="1" edge="1">
          <mxGeometry width="50" height="50" relative="1" as="geometry">
            <mxPoint x="272.02" y="159.19500000000005" as="sourcePoint" />
            <mxPoint x="754" y="169" as="targetPoint" />
            <Array as="points">
              <mxPoint x="304" y="178" />
              <mxPoint x="314" y="168" />
              <mxPoint x="334" y="118" />
              <mxPoint x="374" y="199" />
              <mxPoint x="414" y="108" />
              <mxPoint x="474" y="198" />
              <mxPoint x="494" y="118" />
              <mxPoint x="540" y="188" />
              <mxPoint x="560" y="140" />
              <mxPoint x="570" y="130" />
              <mxPoint x="584" y="140" />
              <mxPoint x="584" y="188" />
              <mxPoint x="624" y="118" />
              <mxPoint x="634" y="199" />
              <mxPoint x="674" y="178" />
              <mxPoint x="664" y="138" />
              <mxPoint x="704" y="138" />
              <mxPoint x="704" y="179" />
            </Array>
          </mxGeometry>
        </mxCell>
        <mxCell id="ZBTB8CKhmBE57qCtS8AL-7" style="edgeStyle=orthogonalEdgeStyle;rounded=0;orthogonalLoop=1;jettySize=auto;html=1;entryX=0;entryY=0.5;entryDx=0;entryDy=0;" edge="1" parent="1" source="wSZy5F7mG4aMIDZkvXDz-3" target="wSZy5F7mG4aMIDZkvXDz-4">
          <mxGeometry relative="1" as="geometry" />
        </mxCell>
        <mxCell id="wSZy5F7mG4aMIDZkvXDz-3" value="Plant Science" style="rounded=1;whiteSpace=wrap;html=1;" parent="1" vertex="1">
          <mxGeometry x="754" y="155" width="120" height="30" as="geometry" />
        </mxCell>
        <mxCell id="wSZy5F7mG4aMIDZkvXDz-4" value="Vision" style="ellipse;whiteSpace=wrap;html=1;" parent="1" vertex="1">
          <mxGeometry x="1038" y="180" width="72" height="430" as="geometry" />
        </mxCell>
        <mxCell id="wSZy5F7mG4aMIDZkvXDz-6" value="" style="curved=1;endArrow=classic;html=1;rounded=0;exitX=0.978;exitY=0.253;exitDx=0;exitDy=0;exitPerimeter=0;" parent="1" edge="1">
          <mxGeometry width="50" height="50" relative="1" as="geometry">
            <mxPoint x="272.02" y="222.68000000000006" as="sourcePoint" />
            <mxPoint x="754" y="231" as="targetPoint" />
            <Array as="points">
              <mxPoint x="314" y="201" />
              <mxPoint x="324" y="251" />
              <mxPoint x="384" y="241" />
              <mxPoint x="354" y="201" />
              <mxPoint x="364" y="181" />
              <mxPoint x="414" y="201" />
              <mxPoint x="424" y="251" />
              <mxPoint x="474" y="191" />
              <mxPoint x="494" y="241" />
              <mxPoint x="534" y="251" />
              <mxPoint x="534" y="191" />
              <mxPoint x="594" y="211" />
              <mxPoint x="604" y="261" />
              <mxPoint x="634" y="221" />
              <mxPoint x="664" y="201" />
              <mxPoint x="684" y="261" />
            </Array>
          </mxGeometry>
        </mxCell>
        <mxCell id="ZBTB8CKhmBE57qCtS8AL-8" style="edgeStyle=orthogonalEdgeStyle;rounded=0;orthogonalLoop=1;jettySize=auto;html=1;entryX=0;entryY=0.5;entryDx=0;entryDy=0;" edge="1" parent="1" source="wSZy5F7mG4aMIDZkvXDz-7" target="wSZy5F7mG4aMIDZkvXDz-4">
          <mxGeometry relative="1" as="geometry" />
        </mxCell>
        <mxCell id="wSZy5F7mG4aMIDZkvXDz-7" value="Process" style="rounded=1;whiteSpace=wrap;html=1;" parent="1" vertex="1">
          <mxGeometry x="754" y="216" width="120" height="31" as="geometry" />
        </mxCell>
        <mxCell id="ZBTB8CKhmBE57qCtS8AL-12" style="edgeStyle=orthogonalEdgeStyle;rounded=0;orthogonalLoop=1;jettySize=auto;html=1;entryX=0;entryY=0.5;entryDx=0;entryDy=0;" edge="1" parent="1" source="wSZy5F7mG4aMIDZkvXDz-8" target="wSZy5F7mG4aMIDZkvXDz-4">
          <mxGeometry relative="1" as="geometry" />
        </mxCell>
        <mxCell id="wSZy5F7mG4aMIDZkvXDz-8" value="ACTS" style="rounded=1;whiteSpace=wrap;html=1;" parent="1" vertex="1">
          <mxGeometry x="754" y="339" width="120" height="32" as="geometry" />
        </mxCell>
        <mxCell id="ZBTB8CKhmBE57qCtS8AL-13" style="edgeStyle=orthogonalEdgeStyle;rounded=0;orthogonalLoop=1;jettySize=auto;html=1;entryX=0;entryY=0.5;entryDx=0;entryDy=0;" edge="1" parent="1" source="wSZy5F7mG4aMIDZkvXDz-9" target="wSZy5F7mG4aMIDZkvXDz-4">
          <mxGeometry relative="1" as="geometry" />
        </mxCell>
        <mxCell id="wSZy5F7mG4aMIDZkvXDz-9" value="Applications" style="rounded=1;whiteSpace=wrap;html=1;" parent="1" vertex="1">
          <mxGeometry x="754" y="400" width="120" height="32" as="geometry" />
        </mxCell>
        <mxCell id="ZBTB8CKhmBE57qCtS8AL-14" style="edgeStyle=orthogonalEdgeStyle;rounded=0;orthogonalLoop=1;jettySize=auto;html=1;entryX=0;entryY=0.5;entryDx=0;entryDy=0;" edge="1" parent="1" source="wSZy5F7mG4aMIDZkvXDz-10" target="wSZy5F7mG4aMIDZkvXDz-4">
          <mxGeometry relative="1" as="geometry" />
        </mxCell>
        <mxCell id="wSZy5F7mG4aMIDZkvXDz-10" value="Sensory" style="rounded=1;whiteSpace=wrap;html=1;" parent="1" vertex="1">
          <mxGeometry x="754" y="461" width="120" height="33" as="geometry" />
        </mxCell>
        <mxCell id="wSZy5F7mG4aMIDZkvXDz-12" value="Internal Stakeholders" style="text;html=1;strokeColor=none;fillColor=none;align=center;verticalAlign=middle;whiteSpace=wrap;rounded=0;fontSize=14;fontStyle=1" parent="1" vertex="1">
          <mxGeometry x="784" y="100" width="60" height="30" as="geometry" />
        </mxCell>
        <mxCell id="wSZy5F7mG4aMIDZkvXDz-13" value="i360" style="text;html=1;strokeColor=none;fillColor=none;align=center;verticalAlign=middle;whiteSpace=wrap;rounded=0;fontSize=14;fontStyle=1" parent="1" vertex="1">
          <mxGeometry x="110" y="391" width="60" height="30" as="geometry" />
        </mxCell>
        <mxCell id="wSZy5F7mG4aMIDZkvXDz-14" value="" style="shape=flexArrow;endArrow=classic;html=1;rounded=0;" parent="1" edge="1">
          <mxGeometry width="50" height="50" relative="1" as="geometry">
            <mxPoint x="100" y="426" as="sourcePoint" />
            <mxPoint x="184" y="426" as="targetPoint" />
          </mxGeometry>
        </mxCell>
        <mxCell id="wSZy5F7mG4aMIDZkvXDz-20" value="External customers" style="text;html=1;strokeColor=none;fillColor=none;align=center;verticalAlign=middle;whiteSpace=wrap;rounded=0;fontSize=14;fontStyle=1" parent="1" vertex="1">
          <mxGeometry x="970" y="679" width="60" height="30" as="geometry" />
        </mxCell>
        <mxCell id="ZBTB8CKhmBE57qCtS8AL-15" style="edgeStyle=orthogonalEdgeStyle;rounded=0;orthogonalLoop=1;jettySize=auto;html=1;entryX=0;entryY=0.5;entryDx=0;entryDy=0;" edge="1" parent="1" source="wSZy5F7mG4aMIDZkvXDz-21" target="wSZy5F7mG4aMIDZkvXDz-4">
          <mxGeometry relative="1" as="geometry" />
        </mxCell>
        <mxCell id="wSZy5F7mG4aMIDZkvXDz-21" value="Marketing" style="rounded=1;whiteSpace=wrap;html=1;" parent="1" vertex="1">
          <mxGeometry x="754" y="524" width="120" height="30" as="geometry" />
        </mxCell>
        <mxCell id="ZBTB8CKhmBE57qCtS8AL-11" style="edgeStyle=orthogonalEdgeStyle;rounded=0;orthogonalLoop=1;jettySize=auto;html=1;" edge="1" parent="1" source="wSZy5F7mG4aMIDZkvXDz-22" target="wSZy5F7mG4aMIDZkvXDz-4">
          <mxGeometry relative="1" as="geometry" />
        </mxCell>
        <mxCell id="wSZy5F7mG4aMIDZkvXDz-22" value="Innovation" style="rounded=1;whiteSpace=wrap;html=1;" parent="1" vertex="1">
          <mxGeometry x="754" y="276" width="120" height="35" as="geometry" />
        </mxCell>
        <mxCell id="wSZy5F7mG4aMIDZkvXDz-23" value="" style="curved=1;endArrow=classic;html=1;rounded=0;entryX=0;entryY=0.5;entryDx=0;entryDy=0;" parent="1" edge="1">
          <mxGeometry width="50" height="50" relative="1" as="geometry">
            <mxPoint x="270" y="299" as="sourcePoint" />
            <mxPoint x="754" y="306" as="targetPoint" />
            <Array as="points">
              <mxPoint x="310" y="259" />
              <mxPoint x="340" y="319" />
              <mxPoint x="380" y="259" />
              <mxPoint x="410" y="314" />
              <mxPoint x="480" y="259" />
              <mxPoint x="460" y="319" />
              <mxPoint x="500" y="319" />
              <mxPoint x="540" y="259" />
              <mxPoint x="570" y="319" />
              <mxPoint x="630" y="259" />
              <mxPoint x="630" y="309" />
              <mxPoint x="680" y="269" />
              <mxPoint x="690" y="319" />
              <mxPoint x="720" y="289" />
            </Array>
          </mxGeometry>
        </mxCell>
        <mxCell id="wSZy5F7mG4aMIDZkvXDz-24" value="&lt;font style=&quot;font-size: 16px;&quot;&gt;Roadmap&lt;/font&gt;&lt;br&gt;&lt;span style=&quot;font-weight: normal;&quot;&gt;&lt;i&gt;How AI provide values for internal customers&lt;/i&gt;&lt;/span&gt;" style="text;html=1;strokeColor=none;fillColor=none;align=center;verticalAlign=middle;whiteSpace=wrap;rounded=0;fontStyle=1;fontSize=14;" parent="1" vertex="1">
          <mxGeometry x="343" y="53" width="350" height="30" as="geometry" />
        </mxCell>
        <mxCell id="wSZy5F7mG4aMIDZkvXDz-25" value="" style="shape=actor;whiteSpace=wrap;html=1;" parent="1" vertex="1">
          <mxGeometry x="50" y="391" width="40" height="60" as="geometry" />
        </mxCell>
        <mxCell id="wSZy5F7mG4aMIDZkvXDz-26" value="Users&lt;br&gt;(Data from internal and external)" style="text;html=1;strokeColor=none;fillColor=none;align=center;verticalAlign=middle;whiteSpace=wrap;rounded=0;" parent="1" vertex="1">
          <mxGeometry x="13" y="474" width="110" height="30" as="geometry" />
        </mxCell>
        <mxCell id="wSZy5F7mG4aMIDZkvXDz-27" value="" style="curved=1;endArrow=classic;html=1;rounded=0;" parent="1" edge="1">
          <mxGeometry width="50" height="50" relative="1" as="geometry">
            <mxPoint x="274" y="426.2307692307693" as="sourcePoint" />
            <mxPoint x="750" y="418" as="targetPoint" />
            <Array as="points">
              <mxPoint x="320" y="428" />
              <mxPoint x="310" y="388" />
              <mxPoint x="360" y="398" />
              <mxPoint x="340" y="428" />
              <mxPoint x="370" y="438" />
              <mxPoint x="390" y="428" />
              <mxPoint x="400" y="398" />
              <mxPoint x="440" y="398" />
              <mxPoint x="440" y="438" />
              <mxPoint x="460" y="448" />
              <mxPoint x="480" y="448" />
              <mxPoint x="480" y="418" />
              <mxPoint x="510" y="418" />
              <mxPoint x="520" y="448" />
              <mxPoint x="550" y="458" />
              <mxPoint x="580" y="408" />
              <mxPoint x="620" y="418" />
              <mxPoint x="620" y="458" />
              <mxPoint x="670" y="448" />
              <mxPoint x="680" y="408" />
              <mxPoint x="710" y="448" />
            </Array>
          </mxGeometry>
        </mxCell>
        <mxCell id="wSZy5F7mG4aMIDZkvXDz-28" value="" style="curved=1;endArrow=classic;html=1;rounded=0;entryX=0;entryY=0.5;entryDx=0;entryDy=0;" parent="1" target="wSZy5F7mG4aMIDZkvXDz-10" edge="1">
          <mxGeometry width="50" height="50" relative="1" as="geometry">
            <mxPoint x="274" y="507" as="sourcePoint" />
            <mxPoint x="750" y="484" as="targetPoint" />
            <Array as="points">
              <mxPoint x="310" y="500" />
              <mxPoint x="330" y="467" />
              <mxPoint x="350" y="477" />
              <mxPoint x="360" y="500" />
              <mxPoint x="380" y="507" />
              <mxPoint x="390" y="487" />
              <mxPoint x="420" y="467" />
              <mxPoint x="440" y="507" />
              <mxPoint x="480" y="507" />
              <mxPoint x="490" y="467" />
              <mxPoint x="520" y="507" />
              <mxPoint x="550" y="517" />
              <mxPoint x="570" y="477" />
              <mxPoint x="600" y="527" />
              <mxPoint x="650" y="517" />
              <mxPoint x="640" y="477" />
              <mxPoint x="670" y="477" />
              <mxPoint x="690" y="487" />
              <mxPoint x="690" y="517" />
            </Array>
          </mxGeometry>
        </mxCell>
        <mxCell id="wSZy5F7mG4aMIDZkvXDz-30" value="" style="curved=1;endArrow=classic;html=1;rounded=0;entryX=0;entryY=0.5;entryDx=0;entryDy=0;" parent="1" target="wSZy5F7mG4aMIDZkvXDz-21" edge="1">
          <mxGeometry width="50" height="50" relative="1" as="geometry">
            <mxPoint x="274" y="543" as="sourcePoint" />
            <mxPoint x="754" y="552" as="targetPoint" />
            <Array as="points">
              <mxPoint x="294" y="563" />
              <mxPoint x="314" y="563" />
              <mxPoint x="328" y="558" />
              <mxPoint x="344" y="513" />
              <mxPoint x="364" y="553" />
              <mxPoint x="404" y="563" />
              <mxPoint x="434" y="513" />
              <mxPoint x="504" y="577" />
              <mxPoint x="504" y="523" />
              <mxPoint x="550" y="527" />
              <mxPoint x="560" y="567" />
              <mxPoint x="590" y="567" />
              <mxPoint x="620" y="527" />
              <mxPoint x="640" y="557" />
              <mxPoint x="660" y="567" />
              <mxPoint x="680" y="567" />
              <mxPoint x="700" y="527" />
            </Array>
          </mxGeometry>
        </mxCell>
        <mxCell id="wSZy5F7mG4aMIDZkvXDz-31" value="" style="curved=1;endArrow=classic;html=1;rounded=0;" parent="1" edge="1">
          <mxGeometry width="50" height="50" relative="1" as="geometry">
            <mxPoint x="274" y="614" as="sourcePoint" />
            <mxPoint x="750" y="614" as="targetPoint" />
            <Array as="points">
              <mxPoint x="310" y="614" />
              <mxPoint x="360" y="554" />
              <mxPoint x="370" y="634" />
              <mxPoint x="410" y="584" />
              <mxPoint x="450" y="624" />
              <mxPoint x="490" y="574" />
              <mxPoint x="510" y="584" />
              <mxPoint x="540" y="624" />
              <mxPoint x="570" y="584" />
              <mxPoint x="600" y="594" />
              <mxPoint x="640" y="634" />
              <mxPoint x="670" y="574" />
              <mxPoint x="700" y="634" />
              <mxPoint x="700" y="584" />
            </Array>
          </mxGeometry>
        </mxCell>
        <mxCell id="ZBTB8CKhmBE57qCtS8AL-21" style="edgeStyle=orthogonalEdgeStyle;rounded=0;orthogonalLoop=1;jettySize=auto;html=1;entryX=0;entryY=0.5;entryDx=0;entryDy=0;" edge="1" parent="1" source="wSZy5F7mG4aMIDZkvXDz-32" target="wSZy5F7mG4aMIDZkvXDz-4">
          <mxGeometry relative="1" as="geometry" />
        </mxCell>
        <mxCell id="wSZy5F7mG4aMIDZkvXDz-32" value="Platform" style="rounded=1;whiteSpace=wrap;html=1;" parent="1" vertex="1">
          <mxGeometry x="754" y="647" width="120" height="30" as="geometry" />
        </mxCell>
        <mxCell id="ZBTB8CKhmBE57qCtS8AL-1" value="Data" style="shape=cylinder3;whiteSpace=wrap;html=1;boundedLbl=1;backgroundOutline=1;size=15;" vertex="1" parent="1">
          <mxGeometry x="184" y="950" width="90" height="330" as="geometry" />
        </mxCell>
        <mxCell id="ZBTB8CKhmBE57qCtS8AL-2" value="Applications" style="rounded=1;whiteSpace=wrap;html=1;" vertex="1" parent="1">
          <mxGeometry x="754" y="1095" width="120" height="60" as="geometry" />
        </mxCell>
        <mxCell id="ZBTB8CKhmBE57qCtS8AL-3" value="" style="curved=1;endArrow=classic;html=1;rounded=0;entryX=0;entryY=0.5;entryDx=0;entryDy=0;" edge="1" parent="1" source="ZBTB8CKhmBE57qCtS8AL-1" target="ZBTB8CKhmBE57qCtS8AL-2">
          <mxGeometry width="50" height="50" relative="1" as="geometry">
            <mxPoint x="274" y="1112" as="sourcePoint" />
            <mxPoint x="324" y="1062" as="targetPoint" />
            <Array as="points">
              <mxPoint x="320" y="1127" />
              <mxPoint x="310" y="1087" />
              <mxPoint x="360" y="1097" />
              <mxPoint x="340" y="1127" />
              <mxPoint x="370" y="1137" />
              <mxPoint x="390" y="1127" />
              <mxPoint x="400" y="1097" />
              <mxPoint x="440" y="1097" />
              <mxPoint x="440" y="1137" />
              <mxPoint x="460" y="1147" />
              <mxPoint x="480" y="1147" />
              <mxPoint x="480" y="1117" />
              <mxPoint x="510" y="1117" />
              <mxPoint x="520" y="1147" />
              <mxPoint x="550" y="1157" />
              <mxPoint x="580" y="1107" />
              <mxPoint x="620" y="1117" />
              <mxPoint x="620" y="1157" />
              <mxPoint x="670" y="1147" />
              <mxPoint x="680" y="1107" />
              <mxPoint x="710" y="1147" />
            </Array>
          </mxGeometry>
        </mxCell>
        <mxCell id="ZBTB8CKhmBE57qCtS8AL-16" style="edgeStyle=orthogonalEdgeStyle;rounded=0;orthogonalLoop=1;jettySize=auto;html=1;entryX=0;entryY=0.5;entryDx=0;entryDy=0;" edge="1" parent="1" source="ZBTB8CKhmBE57qCtS8AL-4" target="wSZy5F7mG4aMIDZkvXDz-4">
          <mxGeometry relative="1" as="geometry" />
        </mxCell>
        <mxCell id="ZBTB8CKhmBE57qCtS8AL-4" value="Regional team" style="rounded=1;whiteSpace=wrap;html=1;" vertex="1" parent="1">
          <mxGeometry x="754" y="586" width="120" height="30" as="geometry" />
        </mxCell>
        <mxCell id="ZBTB8CKhmBE57qCtS8AL-5" value="Culinology" style="rounded=1;whiteSpace=wrap;html=1;" vertex="1" parent="1">
          <mxGeometry x="754" y="770" width="120" height="30" as="geometry" />
        </mxCell>
        <mxCell id="ZBTB8CKhmBE57qCtS8AL-6" value="" style="curved=1;endArrow=classic;html=1;rounded=0;entryX=0;entryY=0.5;entryDx=0;entryDy=0;" edge="1" parent="1">
          <mxGeometry width="50" height="50" relative="1" as="geometry">
            <mxPoint x="274" y="374" as="sourcePoint" />
            <mxPoint x="754" y="352" as="targetPoint" />
            <Array as="points">
              <mxPoint x="324" y="374" />
              <mxPoint x="320" y="326" />
              <mxPoint x="370" y="344" />
              <mxPoint x="380" y="376" />
              <mxPoint x="440" y="336" />
              <mxPoint x="440" y="376" />
              <mxPoint x="500" y="386" />
              <mxPoint x="490" y="336" />
              <mxPoint x="550" y="346" />
              <mxPoint x="550" y="386" />
              <mxPoint x="600" y="376" />
              <mxPoint x="620" y="346" />
              <mxPoint x="640" y="348" />
              <mxPoint x="660" y="386" />
              <mxPoint x="690" y="366" />
              <mxPoint x="690" y="346" />
            </Array>
          </mxGeometry>
        </mxCell>
        <mxCell id="ZBTB8CKhmBE57qCtS8AL-17" value="Public society" style="text;html=1;strokeColor=none;fillColor=none;align=center;verticalAlign=middle;whiteSpace=wrap;rounded=0;fontSize=14;" vertex="1" parent="1">
          <mxGeometry x="1140" y="381.5" width="60" height="30" as="geometry" />
        </mxCell>
        <mxCell id="ZBTB8CKhmBE57qCtS8AL-19" value="" style="endArrow=none;dashed=1;html=1;dashPattern=1 3;strokeWidth=2;rounded=0;exitX=0.5;exitY=0;exitDx=0;exitDy=0;" edge="1" parent="1" source="wSZy5F7mG4aMIDZkvXDz-20">
          <mxGeometry width="50" height="50" relative="1" as="geometry">
            <mxPoint x="1000" y="620" as="sourcePoint" />
            <mxPoint x="1000" y="399" as="targetPoint" />
          </mxGeometry>
        </mxCell>
        <mxCell id="ZBTB8CKhmBE57qCtS8AL-20" value="" style="curved=1;endArrow=classic;html=1;rounded=0;" edge="1" parent="1">
          <mxGeometry width="50" height="50" relative="1" as="geometry">
            <mxPoint x="274" y="670" as="sourcePoint" />
            <mxPoint x="750" y="660" as="targetPoint" />
            <Array as="points">
              <mxPoint x="324" y="670" />
              <mxPoint x="320" y="610" />
              <mxPoint x="360" y="670" />
              <mxPoint x="400" y="670" />
              <mxPoint x="420" y="640" />
              <mxPoint x="450" y="660" />
              <mxPoint x="500" y="670" />
              <mxPoint x="490" y="630" />
              <mxPoint x="520" y="630" />
              <mxPoint x="560" y="650" />
              <mxPoint x="540" y="670" />
              <mxPoint x="580" y="680" />
              <mxPoint x="600" y="650" />
              <mxPoint x="630" y="670" />
              <mxPoint x="660" y="630" />
              <mxPoint x="670" y="670" />
              <mxPoint x="720" y="650" />
            </Array>
          </mxGeometry>
        </mxCell>
        <mxCell id="ZBTB8CKhmBE57qCtS8AL-22" value="Ingredient dataset" style="shape=cylinder3;whiteSpace=wrap;html=1;boundedLbl=1;backgroundOutline=1;size=15;" vertex="1" parent="1">
          <mxGeometry x="295" y="1019" width="60" height="70" as="geometry" />
        </mxCell>
        <mxCell id="ZBTB8CKhmBE57qCtS8AL-23" value="Formulation dataset" style="shape=cylinder3;whiteSpace=wrap;html=1;boundedLbl=1;backgroundOutline=1;size=15;" vertex="1" parent="1">
          <mxGeometry x="344" y="1136" width="70" height="74" as="geometry" />
        </mxCell>
        <mxCell id="ZBTB8CKhmBE57qCtS8AL-24" value="Food process datase" style="shape=cylinder3;whiteSpace=wrap;html=1;boundedLbl=1;backgroundOutline=1;size=15;" vertex="1" parent="1">
          <mxGeometry x="461" y="1035" width="60" height="80" as="geometry" />
        </mxCell>
        <mxCell id="ZBTB8CKhmBE57qCtS8AL-25" value="Measurement methods dataset" style="shape=cylinder3;whiteSpace=wrap;html=1;boundedLbl=1;backgroundOutline=1;size=15;" vertex="1" parent="1">
          <mxGeometry x="522" y="1153" width="80" height="80" as="geometry" />
        </mxCell>
        <mxCell id="ZBTB8CKhmBE57qCtS8AL-26" value="Application dataset" style="shape=cylinder3;whiteSpace=wrap;html=1;boundedLbl=1;backgroundOutline=1;size=15;" vertex="1" parent="1">
          <mxGeometry x="574" y="1040" width="70" height="70" as="geometry" />
        </mxCell>
        <mxCell id="ZBTB8CKhmBE57qCtS8AL-27" value="Report, IP, Literature" style="shape=cylinder3;whiteSpace=wrap;html=1;boundedLbl=1;backgroundOutline=1;size=15;" vertex="1" parent="1">
          <mxGeometry x="667" y="1139" width="70" height="64" as="geometry" />
        </mxCell>
        <mxCell id="ZBTB8CKhmBE57qCtS8AL-28" value="&lt;font style=&quot;font-size: 16px;&quot;&gt;Roadmap&lt;/font&gt;&lt;br&gt;&lt;span style=&quot;font-weight: normal;&quot;&gt;&lt;i&gt;How AI provide values for global applications?&lt;/i&gt;&lt;/span&gt;" style="text;html=1;strokeColor=none;fillColor=none;align=center;verticalAlign=middle;whiteSpace=wrap;rounded=0;fontStyle=1;fontSize=14;" vertex="1" parent="1">
          <mxGeometry x="737" y="980" width="350" height="30" as="geometry" />
        </mxCell>
        <mxCell id="ZBTB8CKhmBE57qCtS8AL-29" value="AI?" style="ellipse;shape=cloud;whiteSpace=wrap;html=1;" vertex="1" parent="1">
          <mxGeometry x="290" y="950" width="100" height="50" as="geometry" />
        </mxCell>
        <mxCell id="ZBTB8CKhmBE57qCtS8AL-30" value="&lt;b&gt;&lt;u&gt;Functionality requirements&lt;/u&gt;&lt;/b&gt;&lt;br&gt;1. Ingredient recommendation based on vale props&lt;br&gt;2. Visualization tool for historical data / results&lt;br&gt;3. Nutrition analysis&lt;br&gt;4. Cost analysis / comparison&lt;br&gt;5. Predict product attributes based on formulation and process" style="shape=note;whiteSpace=wrap;html=1;backgroundOutline=1;darkOpacity=0.05;align=left;" vertex="1" parent="1">
          <mxGeometry x="890" y="1053" width="196" height="150" as="geometry" />
        </mxCell>
        <mxCell id="ZBTB8CKhmBE57qCtS8AL-31" value="AI?" style="ellipse;shape=cloud;whiteSpace=wrap;html=1;" vertex="1" parent="1">
          <mxGeometry x="408" y="950" width="100" height="50" as="geometry" />
        </mxCell>
        <mxCell id="ZBTB8CKhmBE57qCtS8AL-32" value="AI?" style="ellipse;shape=cloud;whiteSpace=wrap;html=1;" vertex="1" parent="1">
          <mxGeometry x="526" y="950" width="100" height="50" as="geometry" />
        </mxCell>
        <mxCell id="ZBTB8CKhmBE57qCtS8AL-33" value="AI?" style="ellipse;shape=cloud;whiteSpace=wrap;html=1;" vertex="1" parent="1">
          <mxGeometry x="644" y="950" width="100" height="50" as="geometry" />
        </mxCell>
        <mxCell id="ZBTB8CKhmBE57qCtS8AL-34" value="IPA" style="shape=cylinder3;whiteSpace=wrap;html=1;boundedLbl=1;backgroundOutline=1;size=15;" vertex="1" parent="1">
          <mxGeometry x="300" y="1290" width="60" height="80" as="geometry" />
        </mxCell>
        <mxCell id="ZBTB8CKhmBE57qCtS8AL-35" value="SAP" style="shape=cylinder3;whiteSpace=wrap;html=1;boundedLbl=1;backgroundOutline=1;size=15;" vertex="1" parent="1">
          <mxGeometry x="390" y="1290" width="60" height="80" as="geometry" />
        </mxCell>
        <mxCell id="ZBTB8CKhmBE57qCtS8AL-36" value="" style="shape=cylinder3;whiteSpace=wrap;html=1;boundedLbl=1;backgroundOutline=1;size=15;" vertex="1" parent="1">
          <mxGeometry x="480" y="1290" width="60" height="80" as="geometry" />
        </mxCell>
      </root>
    </mxGraphModel>
  </diagram>
</mxfile>
